name D:\school\WTK\thesis\model\3dpredictsim\Results\Final\Fal_s1_bCst_ig1_v12.mot
datacolumns 126
datarows 4
range 0.56617863 0.60014935
endheader
time	pelvis_tilt	pelvis_list	pelvis_rotation	pelvis_tx	pelvis_ty	pelvis_tz	hip_flexion_l	hip_adduction_l	hip_rotation_l	hip_flexion_r	hip_adduction_r	hip_rotation_r	knee_angle_l	knee_angle_r	ankle_angle_l	ankle_angle_r	subtalar_angle_l	subtalar_angle_r	mtp_angle_l	mtp_angle_r	lumbar_extension	lumbar_bending	lumbar_rotation	arm_flex_l	arm_add_l	arm_rot_l	arm_flex_r	arm_add_r	arm_rot_r	elbow_flex_l	elbow_flex_r	pro_sup_l	pro_sup_r	glut_med1_l/activation	glut_med2_l/activation	glut_med3_l/activation	glut_min1_l/activation	glut_min2_l/activation	glut_min3_l/activation	semimem_l/activation	semiten_l/activation	bifemlh_l/activation	bifemsh_l/activation	sar_l/activation	add_long_l/activation	add_brev_l/activation	add_mag1_l/activation	add_mag2_l/activation	add_mag3_l/activation	tfl_l/activation	pect_l/activation	grac_l/activation	glut_max1_l/activation	glut_max2_l/activation	glut_max3_l/activation	iliacus_l/activation	psoas_l/activation	quad_fem_l/activation	gem_l/activation	peri_l/activation	rect_fem_l/activation	vas_med_l/activation	vas_int_l/activation	vas_lat_l/activation	med_gas_l/activation	lat_gas_l/activation	soleus_l/activation	tib_post_l/activation	flex_dig_l/activation	flex_hal_l/activation	tib_ant_l/activation	per_brev_l/activation	per_long_l/activation	per_tert_l/activation	ext_dig_l/activation	ext_hal_l/activation	ercspn_l/activation	intobl_l/activation	extobl_l/activation	glut_med1_r/activation	glut_med2_r/activation	glut_med3_r/activation	glut_min1_r/activation	glut_min2_r/activation	glut_min3_r/activation	semimem_r/activation	semiten_r/activation	bifemlh_r/activation	bifemsh_r/activation	sar_r/activation	add_long_r/activation	add_brev_r/activation	add_mag1_r/activation	add_mag2_r/activation	add_mag3_r/activation	tfl_r/activation	pect_r/activation	grac_r/activation	glut_max1_r/activation	glut_max2_r/activation	glut_max3_r/activation	iliacus_r/activation	psoas_r/activation	quad_fem_r/activation	gem_r/activation	peri_r/activation	rect_fem_r/activation	vas_med_r/activation	vas_int_r/activation	vas_lat_r/activation	med_gas_r/activation	lat_gas_r/activation	soleus_r/activation	tib_post_r/activation	flex_dig_r/activation	flex_hal_r/activation	tib_ant_r/activation	per_brev_r/activation	per_long_r/activation	per_tert_r/activation	ext_dig_r/activation	ext_hal_r/activation	ercspn_r/activation	intobl_r/activation	extobl_r/activation	
          0.56617863	         -2.93004802	          1.94836784	         -4.47104238	          0.67941436	          0.92096683	          0.00175753	         29.47502035	          3.39067034	         -1.49304725	        -17.25857482	         -0.72264165	          6.19291008	        -12.51265696	         -4.62985065	          6.62630115	          1.61706733	         -4.69381712	          7.57975929	         -0.12959787	         20.14045984	         -1.98641251	         -0.08974735	          1.89397421	         -4.70793113	        -13.48633461	          6.75281737	          5.41749269	        -13.45129055	         16.53431044	         16.84451857	         31.99691580	         86.51662706	         86.51662706	          0.12723749	          0.05000017	          0.05943628	          0.05000010	          0.05000014	          0.05000060	          0.05943662	          0.05944827	          0.19253786	          0.05000021	          0.05000106	          0.09996661	          0.18082938	          0.21762018	          0.15339344	          0.11347544	          0.05943620	          0.05001809	          0.07748365	          0.05944208	          0.07065283	          0.11381497	          0.05000008	          0.05000010	          0.24117159	          0.05000166	          0.05000051	          0.05000029	          0.08214532	          0.08254071	          0.07095348	          0.05723765	          0.05000167	          0.05943626	          0.05000009	          0.05000042	          0.05000045	          0.50517941	          0.29956788	          0.18109720	          0.20449680	          0.48148559	          0.22497954	          0.06850821	          0.12570128	          0.12339623	          0.33426683	          0.11868200	          0.08398790	          0.34367849	          0.22540752	          0.12334494	          0.05000111	          0.05000033	          0.05000022	          0.06468681	          0.11866842	          0.05000015	          0.05000017	          0.05000027	          0.05000075	          0.05000051	          0.32074881	          0.05000070	          0.05000105	          0.05006277	          0.05001371	          0.05000198	          0.41637578	          0.62480833	          0.05000287	          0.05001547	          0.07065368	          0.21603250	          0.05000055	          0.05000040	          0.05000038	          0.32593908	          0.44129209	          0.30270875	          0.28768868	          0.29875468	          0.36989047	          0.05000005	          0.05000048	          0.12465424	          0.05000019	          0.05000006	          0.05000025	          0.05000001	          0.05000003	          0.05000004	
          0.57750220	         -2.92900295	          2.04028435	         -4.77902116	          0.69553058	          0.91988645	          0.00155236	         28.92134438	          3.70076382	         -1.28744928	        -17.23222461	         -1.00801580	          5.96910906	        -12.28110001	         -6.35536637	          6.10409733	          1.02031623	         -5.07869115	          8.42560766	         -0.10908304	         21.16270887	         -1.81363386	         -0.29645974	          1.95857584	         -5.56568232	        -13.48954114	          6.50382138	          5.22584815	        -13.45693970	         16.89343962	         16.42480560	         33.23711782	         86.51662706	         86.51662706	          0.10703691	          0.05943617	          0.05000010	          0.05944066	          0.05943646	          0.05000185	          0.05000033	          0.05001029	          0.17242227	          0.05653226	          0.05000112	          0.10434028	          0.15212182	          0.18383283	          0.17798266	          0.11987433	          0.05000020	          0.05000636	          0.06518438	          0.05000504	          0.05943583	          0.13213447	          0.05179649	          0.05000451	          0.44402968	          0.14180945	          0.05000078	          0.07065364	          0.16698646	          0.16721337	          0.14521604	          0.05000000	          0.05000001	          0.05000000	          0.05000008	          0.05000039	          0.05000025	          0.55556909	          0.26159605	          0.19395551	          0.37719104	          0.51222520	          0.20733628	          0.05830367	          0.10574453	          0.10380544	          0.28119789	          0.09983967	          0.07065373	          0.28911510	          0.18962112	          0.10376232	          0.05000120	          0.05000030	          0.05000027	          0.05441700	          0.09982850	          0.07344215	          0.05000234	          0.05000151	          0.05000225	          0.05000130	          0.26982579	          0.05489272	          0.05000233	          0.05000192	          0.05000130	          0.05000137	          0.35027066	          0.57417726	          0.05000033	          0.05000381	          0.05943661	          0.18815243	          0.05000169	          0.11411595	          0.10520205	          0.27419190	          0.37123116	          0.28076537	          0.27994661	          0.27021876	          0.35876695	          0.05000003	          0.05214036	          0.13291585	          0.05000021	          0.05000005	          0.05000019	          0.05000002	          0.07065328	          0.05000002	
          0.58882578	         -2.92441894	          2.12880095	         -5.06805074	          0.71196478	          0.91887315	          0.00135344	         28.27098997	          3.96147552	         -1.03126891	        -17.13256776	         -1.29231725	          5.73618954	        -12.66075091	         -8.21452536	          5.48273266	          0.26323626	         -5.47633459	          9.25039758	         -0.13502011	         22.07624891	         -1.61927043	         -0.50734402	          2.01411410	         -6.46705082	        -13.49285181	          6.28253868	          4.96007942	        -13.46358586	         17.19611505	         16.07669779	         34.45618564	         86.51662706	         86.51662706	          0.24200565	          0.05000007	          0.24168590	          0.05000370	          0.05000021	          0.05000019	          0.06586694	          0.05000012	          0.15216342	          0.05000004	          0.05000039	          0.08777516	          0.21683887	          0.17528563	          0.14972631	          0.13088751	          0.05000061	          0.05945618	          0.06721918	          0.05000016	          0.05000024	          0.11609399	          0.05001674	          0.05000057	          0.37353409	          0.11929539	          0.14849783	          0.05943645	          0.14047535	          0.14066622	          0.12216122	          0.05985832	          0.06199199	          0.05943638	          0.05943633	          0.05943616	          0.05943610	          0.46736508	          0.28190469	          0.16316256	          0.31730705	          0.51913504	          0.17441891	          0.05000004	          0.10712454	          0.08732494	          0.29656221	          0.08398881	          0.05943653	          0.24321446	          0.15951629	          0.08728870	          0.05000116	          0.05000054	          0.05000053	          0.05000015	          0.08397974	          0.11495960	          0.05943668	          0.05943559	          0.05026924	          0.05943491	          0.22698748	          0.06950746	          0.05000316	          0.05000738	          0.05000481	          0.05000667	          0.29466113	          0.54825831	          0.05000220	          0.05000095	          0.05000031	          0.15828075	          0.16205015	          0.10114486	          0.09064782	          0.23066027	          0.31229326	          0.23619012	          0.24707300	          0.22731842	          0.30180861	          0.05000002	          0.05000057	          0.15819126	          0.05000011	          0.05000003	          0.05000014	          0.05000944	          0.05943619	          0.05147576	
          0.60014935	         -2.91793049	          2.21867634	         -5.33049276	          0.72856715	          0.91793286	          0.00114524	         27.51723368	          4.18551701	         -0.76643167	        -16.94254780	         -1.57555431	          5.50082598	        -13.12372304	        -10.21857407	          4.98855622	         -0.63995444	         -5.86681885	         10.03211744	         -0.14273002	         22.81244234	         -1.41835289	         -0.72678670	          2.06060172	         -7.37459486	        -13.49747036	          6.10515755	          4.64089359	        -13.47244252	         17.44850618	         15.77833431	         35.64439055	         86.51662706	         86.51662706	          0.28741292	          0.25153397	          0.31551367	          0.17004577	          0.19519101	          0.12726991	          0.05540975	          0.08026787	          0.12800548	          0.08398797	          0.05363355	          0.07383971	          0.18241283	          0.14745682	          0.12595547	          0.14436690	          0.05000044	          0.05001701	          0.06671084	          0.19473811	          0.14895463	          0.11741331	          0.05000009	          0.05000012	          0.31423063	          0.10035583	          0.12492205	          0.05000016	          0.11817307	          0.11833366	          0.10276655	          0.05035505	          0.05215000	          0.05000007	          0.05000005	          0.05000015	          0.05000020	          0.58469247	          0.34533364	          0.18751071	          0.49352706	          0.55551796	          0.26758632	          0.07225408	          0.10192125	          0.07346094	          0.30643881	          0.07065448	          0.05000023	          0.33566269	          0.13419102	          0.07343050	          0.05000164	          0.05000016	          0.05000012	          0.05000025	          0.07064789	          0.11906840	          0.05000086	          0.05000045	          0.05000087	          0.05000047	          0.19095120	          0.05849304	          0.05000055	          0.05000127	          0.05000080	          0.05000057	          0.24788071	          0.51723327	          0.05000009	          0.05000060	          0.05000045	          0.14768076	          0.13632678	          0.08508797	          0.14107580	          0.19403986	          0.26271254	          0.19869178	          0.20784713	          0.19122878	          0.25389264	          0.05000002	          0.08122779	          0.14949629	          0.05000014	          0.05000003	          0.05000014	          0.06022234	          0.05000001	          0.05000002	
